<mxfile host="app.diagrams.net" modified="2022-01-14T03:02:35.857Z" agent="5.0 (Macintosh; Intel Mac OS X 10_15_7) AppleWebKit/537.36 (KHTML, like Gecko) Chrome/97.0.4692.71 Safari/537.36" etag="Ms6U4VspYjafmLGq5hDT" version="16.2.6" type="github">
  <diagram id="kSGLOnJmUWar_YRvA2aN" name="第 1 页">
    <mxGraphModel dx="1113" dy="693" grid="1" gridSize="10" guides="1" tooltips="1" connect="1" arrows="1" fold="1" page="1" pageScale="1" pageWidth="827" pageHeight="1169" math="0" shadow="0">
      <root>
        <mxCell id="0" />
        <mxCell id="1" parent="0" />
        <mxCell id="Nu4Wi0Dl5SRdbatbLQvJ-3" value="" style="edgeStyle=orthogonalEdgeStyle;rounded=0;orthogonalLoop=1;jettySize=auto;html=1;" edge="1" parent="1" source="Nu4Wi0Dl5SRdbatbLQvJ-1" target="Nu4Wi0Dl5SRdbatbLQvJ-2">
          <mxGeometry relative="1" as="geometry" />
        </mxCell>
        <mxCell id="Nu4Wi0Dl5SRdbatbLQvJ-1" value="执行秒杀" style="rounded=1;whiteSpace=wrap;html=1;fillColor=#f5f5f5;fontColor=#333333;strokeColor=#666666;sketch=1;shadow=0;" vertex="1" parent="1">
          <mxGeometry x="220" y="60" width="120" height="60" as="geometry" />
        </mxCell>
        <mxCell id="Nu4Wi0Dl5SRdbatbLQvJ-5" value="" style="edgeStyle=orthogonalEdgeStyle;rounded=0;orthogonalLoop=1;jettySize=auto;html=1;" edge="1" parent="1" source="Nu4Wi0Dl5SRdbatbLQvJ-2" target="Nu4Wi0Dl5SRdbatbLQvJ-4">
          <mxGeometry relative="1" as="geometry" />
        </mxCell>
        <mxCell id="Nu4Wi0Dl5SRdbatbLQvJ-2" value="进入方法" style="whiteSpace=wrap;html=1;rounded=1;fillColor=#dae8fc;strokeColor=#6c8ebf;shadow=0;sketch=1;" vertex="1" parent="1">
          <mxGeometry x="220" y="170" width="120" height="60" as="geometry" />
        </mxCell>
        <mxCell id="Nu4Wi0Dl5SRdbatbLQvJ-7" value="" style="edgeStyle=orthogonalEdgeStyle;rounded=0;orthogonalLoop=1;jettySize=auto;html=1;" edge="1" parent="1" source="Nu4Wi0Dl5SRdbatbLQvJ-4" target="Nu4Wi0Dl5SRdbatbLQvJ-6">
          <mxGeometry relative="1" as="geometry" />
        </mxCell>
        <mxCell id="Nu4Wi0Dl5SRdbatbLQvJ-4" value="获取锁" style="whiteSpace=wrap;html=1;rounded=1;fillColor=#d5e8d4;strokeColor=#82b366;sketch=1;" vertex="1" parent="1">
          <mxGeometry x="220" y="280" width="120" height="60" as="geometry" />
        </mxCell>
        <mxCell id="Nu4Wi0Dl5SRdbatbLQvJ-9" value="" style="edgeStyle=orthogonalEdgeStyle;rounded=0;orthogonalLoop=1;jettySize=auto;html=1;" edge="1" parent="1" source="Nu4Wi0Dl5SRdbatbLQvJ-6" target="Nu4Wi0Dl5SRdbatbLQvJ-8">
          <mxGeometry relative="1" as="geometry" />
        </mxCell>
        <mxCell id="Nu4Wi0Dl5SRdbatbLQvJ-6" value="&lt;span&gt;开启事务&lt;/span&gt;" style="whiteSpace=wrap;html=1;rounded=1;fillColor=#ffe6cc;strokeColor=#d79b00;sketch=1;" vertex="1" parent="1">
          <mxGeometry x="220" y="390" width="120" height="60" as="geometry" />
        </mxCell>
        <mxCell id="Nu4Wi0Dl5SRdbatbLQvJ-11" value="" style="edgeStyle=orthogonalEdgeStyle;rounded=0;orthogonalLoop=1;jettySize=auto;html=1;" edge="1" parent="1" source="Nu4Wi0Dl5SRdbatbLQvJ-8" target="Nu4Wi0Dl5SRdbatbLQvJ-10">
          <mxGeometry relative="1" as="geometry" />
        </mxCell>
        <mxCell id="Nu4Wi0Dl5SRdbatbLQvJ-8" value="读库存" style="whiteSpace=wrap;html=1;rounded=1;fillColor=#fff2cc;strokeColor=#d6b656;sketch=1;" vertex="1" parent="1">
          <mxGeometry x="220" y="490" width="120" height="60" as="geometry" />
        </mxCell>
        <mxCell id="Nu4Wi0Dl5SRdbatbLQvJ-13" value="" style="edgeStyle=orthogonalEdgeStyle;rounded=0;orthogonalLoop=1;jettySize=auto;html=1;" edge="1" parent="1" source="Nu4Wi0Dl5SRdbatbLQvJ-10" target="Nu4Wi0Dl5SRdbatbLQvJ-12">
          <mxGeometry relative="1" as="geometry" />
        </mxCell>
        <mxCell id="Nu4Wi0Dl5SRdbatbLQvJ-10" value="预扣库存" style="whiteSpace=wrap;html=1;rounded=1;fillColor=#f8cecc;strokeColor=#b85450;sketch=1;" vertex="1" parent="1">
          <mxGeometry x="220" y="600" width="120" height="60" as="geometry" />
        </mxCell>
        <mxCell id="Nu4Wi0Dl5SRdbatbLQvJ-15" value="" style="edgeStyle=orthogonalEdgeStyle;rounded=0;orthogonalLoop=1;jettySize=auto;html=1;" edge="1" parent="1" source="Nu4Wi0Dl5SRdbatbLQvJ-12" target="Nu4Wi0Dl5SRdbatbLQvJ-14">
          <mxGeometry relative="1" as="geometry" />
        </mxCell>
        <mxCell id="Nu4Wi0Dl5SRdbatbLQvJ-12" value="下单" style="whiteSpace=wrap;html=1;rounded=1;fillColor=#e1d5e7;strokeColor=#9673a6;sketch=1;" vertex="1" parent="1">
          <mxGeometry x="220" y="710" width="120" height="60" as="geometry" />
        </mxCell>
        <mxCell id="Nu4Wi0Dl5SRdbatbLQvJ-17" value="" style="edgeStyle=orthogonalEdgeStyle;rounded=0;orthogonalLoop=1;jettySize=auto;html=1;" edge="1" parent="1" source="Nu4Wi0Dl5SRdbatbLQvJ-14" target="Nu4Wi0Dl5SRdbatbLQvJ-16">
          <mxGeometry relative="1" as="geometry" />
        </mxCell>
        <mxCell id="Nu4Wi0Dl5SRdbatbLQvJ-14" value="提交事务" style="whiteSpace=wrap;html=1;rounded=1;fillColor=#d5e8d4;strokeColor=#82b366;sketch=1;" vertex="1" parent="1">
          <mxGeometry x="220" y="830" width="120" height="60" as="geometry" />
        </mxCell>
        <mxCell id="Nu4Wi0Dl5SRdbatbLQvJ-19" value="" style="edgeStyle=orthogonalEdgeStyle;rounded=0;orthogonalLoop=1;jettySize=auto;html=1;" edge="1" parent="1" source="Nu4Wi0Dl5SRdbatbLQvJ-16" target="Nu4Wi0Dl5SRdbatbLQvJ-18">
          <mxGeometry relative="1" as="geometry" />
        </mxCell>
        <mxCell id="Nu4Wi0Dl5SRdbatbLQvJ-16" value="释放锁" style="whiteSpace=wrap;html=1;rounded=1;fillColor=#f8cecc;strokeColor=#b85450;sketch=1;" vertex="1" parent="1">
          <mxGeometry x="220" y="930" width="120" height="60" as="geometry" />
        </mxCell>
        <mxCell id="Nu4Wi0Dl5SRdbatbLQvJ-18" value="结束" style="whiteSpace=wrap;html=1;rounded=1;fillColor=#f5f5f5;fontColor=#333333;strokeColor=#666666;sketch=1;" vertex="1" parent="1">
          <mxGeometry x="220" y="1030" width="120" height="60" as="geometry" />
        </mxCell>
      </root>
    </mxGraphModel>
  </diagram>
</mxfile>
